<svg width="36" height="36" viewBox="0 0 36 36" fill="none" xmlns="http://www.w3.org/2000/svg">
<path d="M24.9588 9.11168C31.0104 5.58008 19.2564 0.0792754 20.4192 6.98768C20.4192 6.98768 15.804 12.1789 13.1724 17.5969H23.202C23.9861 14.8133 24.5732 11.9778 24.9588 9.11168Z" fill="#375232"/>
<path d="M30.8339 18.3601C30.8386 18.3274 30.8362 18.2941 30.8269 18.2624C30.8175 18.2307 30.8015 18.2014 30.7799 18.1765C30.7673 18.161 30.7513 18.1484 30.7333 18.1397C30.7153 18.131 30.6955 18.1263 30.6755 18.1261H5.3243C5.30427 18.1263 5.28454 18.131 5.2665 18.1397C5.24846 18.1484 5.23255 18.161 5.2199 18.1765C5.19827 18.2014 5.18225 18.2307 5.17294 18.2624C5.16362 18.2941 5.16122 18.3274 5.1659 18.3601C5.1911 18.5977 5.2199 18.9109 5.2487 19.2817C5.5079 22.4065 6.1199 29.7073 10.7351 29.7073H25.2647C29.8799 29.7073 30.4919 22.4065 30.7511 19.2925C30.7799 18.9217 30.8087 18.6085 30.8339 18.3601Z" fill="#375232"/>
<path d="M10.0654 30.2472V32.13H25.9342V30.2472H25.2682H10.735H10.0654Z" fill="#375232"/>
</svg>
