<svg width="36" height="36" viewBox="0 0 36 36" fill="none" xmlns="http://www.w3.org/2000/svg">
<path d="M13.5015 28.7986H9.00146V30.1486H13.5015V28.7986Z" fill="#375232"/>
<path d="M13.5012 24.2986V23.1579C13.4995 21.6657 13.152 20.1943 12.486 18.859C12.2664 18.4179 12.1519 17.932 12.1512 17.4393V13.9486C12.1503 13.7833 12.0886 13.624 11.978 13.5011C11.8674 13.3782 11.7156 13.3001 11.5512 13.2817C11.3869 13.2634 11.2215 13.306 11.0865 13.4014C10.9515 13.4969 10.8562 13.6386 10.8188 13.7997C10.8134 13.8586 10.8012 13.9167 10.8012 13.9765V19.3486H9.90123V13.9765C9.90123 13.9671 9.90123 13.9581 9.90123 13.9486C9.90123 13.9396 9.90393 13.9311 9.90393 13.9216C9.9098 13.5647 9.98435 13.2122 10.1235 12.8835L11.721 9.12058C11.7589 9.03189 11.7784 8.93645 11.7784 8.84001C11.7784 8.74357 11.7589 8.64813 11.721 8.55943C11.6819 8.46724 11.6246 8.38388 11.5525 8.3143C11.4804 8.24472 11.3951 8.19035 11.3016 8.15443C11.2061 8.11627 11.104 8.09768 11.0011 8.09977C10.8983 8.10185 10.797 8.12458 10.7031 8.16658C10.6123 8.20607 10.5303 8.26325 10.4618 8.3348C10.3934 8.40635 10.3399 8.49082 10.3044 8.58328L7.65528 15.5331C7.02964 17.1677 7.04975 18.9793 7.71153 20.5996L9.24783 24.2986H13.5012Z" fill="#375232"/>
<path d="M18.4513 13.4986V11.6986H17.5513V13.4986C17.5513 13.618 17.5039 13.7324 17.4195 13.8168C17.3351 13.9012 17.2206 13.9486 17.1013 13.9486H15.3013V14.8486H17.1013C17.2206 14.8486 17.3351 14.896 17.4195 14.9804C17.5039 15.0648 17.5513 15.1793 17.5513 15.2986V17.0986H18.4513V15.2986C18.4513 15.1793 18.4987 15.0648 18.5831 14.9804C18.6675 14.896 18.7819 14.8486 18.9013 14.8486H20.7013V13.9486H18.9013C18.7819 13.9486 18.6675 13.9012 18.5831 13.8168C18.4987 13.7324 18.4513 13.618 18.4513 13.4986Z" fill="#375232"/>
<path d="M13.9513 25.1986H8.55127V27.8986H13.9513V25.1986Z" fill="#375232"/>
<path d="M27.0015 28.7986H22.5015V30.1486H27.0015V28.7986Z" fill="#375232"/>
<path d="M27.4513 25.1986H22.0513V27.8986H27.4513V25.1986Z" fill="#375232"/>
<path d="M22.951 17.4393V13.9486C22.951 13.5309 23.117 13.1303 23.4123 12.8349C23.7077 12.5395 24.1083 12.3736 24.526 12.3736C24.5815 12.3762 24.6368 12.3818 24.6916 12.3903L23.4523 9.47246C23.3676 9.27325 23.3239 9.05897 23.3239 8.84246C23.3239 8.62595 23.3676 8.41168 23.4523 8.21246C23.4925 8.11955 23.5408 8.0304 23.5968 7.94606C22.0467 6.59456 20.0598 5.84998 18.0033 5.84998C15.9468 5.84998 13.9598 6.59456 12.4098 7.94606C12.4658 8.03034 12.5142 8.1195 12.5542 8.21246C12.639 8.41168 12.6827 8.62595 12.6827 8.84246C12.6827 9.05897 12.639 9.27325 12.5542 9.47246L11.3149 12.3903C11.3683 12.3819 11.4221 12.3764 11.476 12.3736C11.8938 12.3736 12.2944 12.5395 12.5897 12.8349C12.8851 13.1303 13.051 13.5309 13.051 13.9486V17.4393C13.0517 17.7923 13.1337 18.1405 13.2909 18.4567C13.8623 19.6056 14.2197 20.849 14.3457 22.126C15.4882 22.6676 16.7367 22.9486 18.001 22.9486C19.2654 22.9486 20.5139 22.6676 21.6564 22.126C21.7823 20.849 22.1398 19.6056 22.7112 18.4567C22.8683 18.1405 22.9504 17.7923 22.951 17.4393ZM18.001 6.74861C19.1609 6.74553 20.306 7.00863 21.3481 7.51766L20.9539 8.32766C19.3745 7.56193 17.5596 7.43915 15.8914 7.98521L15.6102 7.13021C16.3818 6.87676 17.1889 6.74794 18.001 6.74861ZM14.2048 8.81861L13.6972 8.07476C14.0022 7.86677 14.322 7.68132 14.6539 7.51991L15.0481 8.32991C14.7555 8.47196 14.4736 8.63529 14.2048 8.81861ZM21.601 15.2986C21.601 15.418 21.5536 15.5324 21.4692 15.6168C21.3848 15.7012 21.2704 15.7486 21.151 15.7486H19.351V17.5486C19.351 17.668 19.3036 17.7824 19.2192 17.8668C19.1348 17.9512 19.0204 17.9986 18.901 17.9986H17.101C16.9817 17.9986 16.8672 17.9512 16.7828 17.8668C16.6985 17.7824 16.651 17.668 16.651 17.5486V15.7486H14.851C14.7317 15.7486 14.6172 15.7012 14.5328 15.6168C14.4485 15.5324 14.401 15.418 14.401 15.2986V13.4986C14.401 13.3793 14.4485 13.2648 14.5328 13.1804C14.6172 13.096 14.7317 13.0486 14.851 13.0486H16.651V11.2486C16.651 11.1293 16.6985 11.0148 16.7828 10.9304C16.8672 10.846 16.9817 10.7986 17.101 10.7986H18.901C19.0204 10.7986 19.1348 10.846 19.2192 10.9304C19.3036 11.0148 19.351 11.1293 19.351 11.2486V13.0486H21.151C21.2704 13.0486 21.3848 13.096 21.4692 13.1804C21.5536 13.2648 21.601 13.3793 21.601 13.4986V15.2986Z" fill="#375232"/>
<path d="M28.3474 15.533L25.6965 8.58142C25.661 8.48896 25.6075 8.40448 25.5391 8.33294C25.4706 8.26139 25.3886 8.2042 25.2978 8.16472C25.2039 8.12281 25.1025 8.10015 24.9997 8.09806C24.897 8.09597 24.7948 8.11451 24.6993 8.15257C24.6058 8.18849 24.5204 8.24286 24.4484 8.31243C24.3763 8.38201 24.319 8.46538 24.2799 8.55757C24.242 8.64626 24.2225 8.7417 24.2225 8.83814C24.2225 8.93458 24.242 9.03002 24.2799 9.11872L25.8774 12.8812C26.0165 13.2101 26.0911 13.5627 26.097 13.9198C26.097 13.9292 26.0997 13.9378 26.0997 13.9468C26.0997 13.9562 26.0997 13.9652 26.0997 13.9747V19.3486H25.2015V13.9765C25.2015 13.9166 25.1893 13.8586 25.1839 13.7996C25.1465 13.6386 25.0512 13.4968 24.9162 13.4014C24.7812 13.3059 24.6158 13.2633 24.4515 13.2817C24.2871 13.3 24.1353 13.3781 24.0247 13.501C23.9141 13.624 23.8524 13.7832 23.8515 13.9486V17.4392C23.8508 17.932 23.7363 18.4179 23.5167 18.859C22.8507 20.1942 22.5032 21.6657 22.5015 23.1578V24.2986H26.7549L28.2925 20.5964C28.9533 18.9769 28.973 17.1665 28.3474 15.533Z" fill="#375232"/>
</svg>
