<svg width="55" height="36" viewBox="0 0 55 36" fill="none" xmlns="http://www.w3.org/2000/svg">
<g clip-path="url(#clip0)">
<path fill-rule="evenodd" clip-rule="evenodd" d="M7.9029 13.7052L14.058 25.3316H11.3224V28.9031H12.3103C12.7662 28.9031 12.7662 29.587 12.3103 29.587H3.5715C3.03958 29.587 3.03958 28.9031 3.5715 28.9031H4.48338V25.3316H1.82375L7.9029 13.7052ZM24.6206 11.0456C26.1404 11.0456 27.2802 12.1854 27.2802 13.6292C27.2802 15.149 26.1404 16.2129 24.6206 16.2129C23.1768 16.2129 21.961 15.149 21.961 13.6292C21.961 12.1854 23.1768 11.0456 24.6206 11.0456ZM25.4565 18.3406C25.7604 18.2646 26.0644 18.4926 26.3683 18.4926C26.7483 18.4166 26.7483 17.9606 27.3562 17.9606C27.8121 18.0366 28.724 18.4926 28.648 18.4926C28.648 18.4926 27.8881 18.1886 27.3562 18.3406C27.0522 18.4166 26.7483 18.7965 26.4443 18.7965C26.2923 18.8725 25.9884 18.5686 25.5325 18.5686C25.0005 18.6445 24.3926 18.9485 24.3166 19.0245C24.3166 19.0245 25.1525 18.4166 25.4565 18.3406ZM21.1251 20.0883C21.429 20.0124 21.733 20.2403 21.961 20.2403C22.4169 20.2403 22.4169 19.7844 23.0248 19.7844C23.3288 19.7844 24.3166 20.2403 24.2406 20.2403C24.2406 20.2403 23.5567 20.0124 23.0248 20.0883C22.6449 20.1643 22.3409 20.6203 22.1129 20.6203C21.885 20.6203 21.505 20.3163 21.1251 20.3923C20.5931 20.3923 19.9852 20.7723 19.9852 20.7723C19.9092 20.8482 20.7451 20.1643 21.1251 20.0883ZM18.1615 17.9606C18.7694 17.8087 19.3013 18.2646 19.7573 18.2646C20.3652 18.1886 20.5172 17.3527 21.429 17.4287C22.1129 17.4287 23.7087 18.2646 23.6327 18.2646C23.6327 18.2646 22.3409 17.7327 21.429 17.9606C20.8971 18.1886 20.3652 18.7965 19.9852 18.8725C19.6053 18.8725 18.9974 18.4166 18.3135 18.4926C17.3256 18.5686 16.4137 19.1005 16.2617 19.1005C16.1098 19.1765 17.7055 18.0366 18.1615 17.9606ZM34.3472 4.89046C37.8427 2.61078 42.934 4.35853 43.466 8.53795C43.9219 3.37067 49.4691 2.15484 53.1166 5.27041C49.5451 4.66249 45.7456 5.04244 44.9858 8.53795C44.9098 7.39811 50.381 2.76276 54.7884 9.82977C51.5968 7.32212 47.7214 6.63822 45.5177 9.37384C46.2776 8.46196 53.6485 6.18228 53.8765 14.3132C52.5847 11.0456 49.7731 8.84191 46.4296 10.1337C50.457 10.4377 53.0406 14.9211 51.2929 18.5686C51.2169 15.301 48.7092 12.1095 45.5937 11.0456C45.3657 11.3496 45.1377 11.6535 44.6818 11.8055C47.4934 17.8087 46.9615 24.3438 46.2776 27.3833C46.5815 27.3833 51.7488 29.2831 52.0528 32.3986H29.7879C29.8639 32.3226 29.8639 32.0947 29.9398 32.0187C29.4839 32.0187 29.104 31.8667 28.648 31.4868C27.8121 32.2467 26.6723 32.2467 25.7604 31.4868C25.0005 32.0947 23.9367 32.2467 23.1008 31.6387C22.3409 32.2467 21.2011 32.0947 20.3652 31.4868C19.5293 32.2467 18.3894 32.2467 17.5536 31.4868C17.0216 31.9427 16.3377 32.0187 15.7298 31.9427V32.0187H0V30.5749H15.7298V31.6387C16.2617 31.7147 16.8697 31.6387 17.5536 31.1068C18.3894 31.7907 19.5293 31.7907 20.3652 31.1068C21.2011 31.7147 22.3409 31.7907 23.1008 31.2588C23.9367 31.7907 25.0005 31.7147 25.7604 31.1068C26.6723 31.7907 27.8121 31.7907 28.648 31.1068C29.1799 31.4868 29.7119 31.7147 30.0158 31.7147C31.4596 28.8271 37.6148 25.7876 43.314 26.7754C45.0617 22.292 45.8976 17.2767 43.8459 12.1095C42.934 11.9575 42.2501 11.5775 42.0982 10.9696C38.6786 11.7295 35.943 15.149 35.867 18.5686C34.0433 14.9211 36.5509 10.7416 40.5024 10.4377C37.3868 9.75378 34.5752 11.2736 33.1314 14.3132C33.5113 6.94217 41.0343 9.29785 42.2501 9.90576C39.6665 7.55009 37.0829 7.39811 32.8274 9.52582C34.6512 5.80233 39.8945 5.49838 42.6301 9.06988C42.6301 9.06988 40.0464 4.43452 34.3472 4.89046ZM12.9942 30.4989H2.81161C2.27968 30.4989 2.27968 29.663 2.81161 29.663H12.9942C13.4501 29.663 13.4501 30.4989 12.9942 30.4989ZM10.4865 28.9031V25.3316H5.39525V28.9031H10.4865Z" fill="#375232"/>
</g>
<defs>
<clipPath id="clip0">
<rect width="54.7884" height="36" fill="white"/>
</clipPath>
</defs>
</svg>
