<svg width="60" height="60" viewBox="0 0 60 60" fill="none" xmlns="http://www.w3.org/2000/svg">
<path d="M36.4204 13.2C36.0004 12.9 35.4604 13.02 35.1604 13.38L28.0204 23.34L24.8404 18.84C24.5404 18.42 24.0004 18.36 23.5804 18.66C23.1604 18.96 23.1004 19.5 23.4004 19.92L27.3604 25.44C27.5404 25.68 27.7804 25.8 28.0804 25.8C28.3804 25.8 28.6204 25.68 28.8004 25.44L36.6604 14.46C36.9004 14.04 36.8404 13.5 36.4204 13.2Z" fill="#375232"/>
<path d="M22.0803 36.36C19.3803 33.96 18.4203 33.06 17.9403 32.64C17.4603 32.16 17.4603 32.16 16.6803 31.56C15.5403 30.6 14.5203 30.3 13.7403 30.42C13.1403 26.64 11.4003 15.24 10.8603 13.62C10.5003 12.42 9.42031 11.7 8.22031 11.82C7.08031 11.94 5.88031 12.84 5.76031 14.64C5.58031 17.04 5.16031 29.1 5.10031 32.64C4.92031 36.6 6.00031 37.8 7.14031 39.12C7.26031 39.24 7.32031 39.36 7.44031 39.48C8.76031 41.04 11.7603 44.34 14.0403 46.5C15.9003 48.3 15.9003 48.78 15.9603 50.1V50.58C16.0203 52.32 15.6003 56.88 15.6003 56.94C15.6003 57.18 15.6603 57.42 15.8403 57.66C16.0203 57.84 16.2603 57.96 16.5003 57.96L25.6803 57.72C26.1603 57.72 26.5803 57.3 26.5803 56.82C26.5803 55.38 26.5803 54 26.6403 52.68C26.7603 45.9 26.8803 40.62 22.0803 36.36ZM24.7803 55.92L17.4603 56.1C17.5203 55.14 17.6403 53.7 17.7003 52.38L24.8403 51.78C24.8403 52.08 24.8403 52.32 24.8403 52.62C24.8403 53.64 24.7803 54.78 24.7803 55.92ZM24.9003 49.98L17.7603 50.58V50.52V50.1C17.7603 48.36 17.6403 47.4 15.3003 45.24C13.0203 43.08 10.0803 39.84 8.82031 38.34C8.70031 38.22 8.58031 38.1 8.52031 37.98C7.50031 36.84 6.78031 36 6.90031 32.7C7.02031 28.5 7.38031 17.04 7.56031 14.82C7.62031 14.04 8.10031 13.74 8.46031 13.68H8.52031C8.70031 13.68 9.06031 13.74 9.18031 14.22C9.60031 15.66 11.4003 26.94 12.1203 31.62C11.7003 32.4 11.8203 33.54 12.3603 34.62C13.6203 37.08 15.7203 40.5 15.8403 40.68C16.0803 41.1 16.6803 41.22 17.1003 40.98C17.5203 40.74 17.6403 40.14 17.4003 39.72C17.4003 39.66 15.1803 36.18 14.0403 33.84C13.6803 33.12 13.6803 32.58 13.8003 32.4L13.8603 32.34C14.0403 32.22 14.6403 32.22 15.6003 33.06C16.3203 33.66 16.3203 33.66 16.8003 34.08C17.2803 34.5 18.3003 35.4 21.0003 37.8C24.4803 40.86 24.9003 44.82 24.9003 49.98Z" fill="#375232"/>
<path d="M54.9603 32.5799C54.8403 29.0999 54.4803 17.0399 54.3003 14.5799C54.1803 12.8399 52.9203 11.9399 51.8403 11.7599C50.6403 11.6399 49.5603 12.3599 49.2003 13.5599C48.7203 15.1799 46.9203 26.5799 46.3203 30.3599C45.5403 30.2999 44.5203 30.5399 43.3803 31.4999C42.6003 32.0999 42.6003 32.0999 42.1203 32.5799C41.6403 32.9999 40.6203 33.8999 37.9803 36.2999C33.1803 40.5599 33.3003 45.8399 33.4203 52.5599C33.4203 53.8799 33.4803 55.2599 33.4803 56.6999C33.4803 57.1799 33.8403 57.5999 34.3803 57.5999L43.5603 57.8399C43.8003 57.8399 44.0403 57.7199 44.2203 57.5399C44.4003 57.3599 44.4603 57.1199 44.4603 56.8199C44.4603 56.7599 44.1003 52.1999 44.1003 50.4599V49.9799C44.1003 48.6599 44.1003 48.1799 46.0203 46.3799C48.3003 44.1599 51.3603 40.8599 52.6203 39.3599C52.7403 39.2399 52.8003 39.1199 52.9203 38.9999C54.0003 37.7999 55.0803 36.5999 54.9603 32.5799ZM35.2203 55.9199C35.2203 54.7799 35.2203 53.6999 35.1603 52.6199C35.1603 52.3199 35.1603 52.0799 35.1603 51.7799L42.3003 52.3799C42.3603 53.6399 42.4803 55.1399 42.5403 56.0999L35.2203 55.9199ZM51.5403 37.9199C51.4203 38.0399 51.3003 38.1599 51.2403 38.2799C49.9803 39.7799 46.9803 43.0199 44.7603 45.1799C42.4803 47.3999 42.3603 48.2999 42.3003 50.0399V50.4599V50.5199L35.1603 49.9199C35.1003 44.7599 35.5803 40.8599 39.1203 37.6199C41.8203 35.2199 42.8403 34.3199 43.3203 33.8999C43.8003 33.4799 43.8003 33.4799 44.5203 32.8799C45.4803 32.0999 46.0803 32.0399 46.2603 32.1599C46.2603 32.1599 46.2603 32.2199 46.3203 32.2199C46.4403 32.3999 46.4403 32.9399 46.0803 33.6599C44.8803 36.0599 42.7203 39.5399 42.7203 39.5399C42.4803 39.9599 42.6003 40.4999 43.0203 40.7999C43.4403 41.0399 43.9803 40.9199 44.2803 40.4999C44.4003 40.3799 46.5003 36.8999 47.7603 34.4399C48.3003 33.2999 48.4203 32.2199 48.0003 31.4399C48.7203 26.7599 50.5203 15.4799 50.9403 14.0399C51.1203 13.4999 51.5403 13.4999 51.6603 13.4999C52.0203 13.5599 52.5003 13.8599 52.5603 14.6399C52.7403 16.8599 53.1003 28.3199 53.2203 32.5199C53.2203 35.9399 52.5003 36.7799 51.5403 37.9199Z" fill="#375232"/>
<path d="M43.8601 10.2C43.8601 9.83997 43.6201 9.47998 43.2601 9.35998C38.4001 7.61998 35.4601 6.17998 30.6001 2.27998C30.3001 2.03998 29.8201 2.03998 29.4601 2.27998C24.6001 6.17998 21.6001 7.61998 16.7401 9.35998C16.3801 9.47998 16.1401 9.83997 16.1401 10.2C16.1401 19.5 18.2401 26.16 22.3201 29.94C25.4401 32.82 28.8001 33.06 29.8201 33.06C29.9401 33.06 30.0001 33.06 30.0601 33.06C30.6001 33.06 34.2601 33.12 37.7401 29.94C41.8201 26.22 43.8601 19.56 43.8601 10.2ZM30.1201 31.32H30.0601H30.0001C29.8801 31.32 26.6401 31.5 23.5201 28.62C19.9801 25.32 18.0601 19.14 17.9401 10.86C22.4401 9.23998 25.5601 7.67998 30.0601 4.13998C34.5601 7.67998 37.6201 9.17998 42.0601 10.86C42.0001 19.2 40.0801 25.32 36.5401 28.62C33.4801 31.5 30.2401 31.32 30.1201 31.32Z" fill="#375232"/>
</svg>
