<svg width="60" height="60" viewBox="0 0 60 60" fill="none" xmlns="http://www.w3.org/2000/svg">
<path d="M19.8592 18.9693C19.6398 18.7491 19.3423 18.6245 19.0315 18.6227C18.7206 18.6209 18.4216 18.7421 18.1997 18.9598C17.9778 19.1774 17.851 19.474 17.8468 19.7848C17.8426 20.0957 17.9615 20.3955 18.1774 20.6191L22.116 24.6346C22.225 24.7457 22.3549 24.8341 22.4983 24.8947C22.6417 24.9552 22.7956 24.9868 22.9512 24.9875H22.9569C23.2693 24.9875 23.5689 24.8634 23.7898 24.6426L33.1763 15.2562C33.3965 15.0352 33.52 14.7358 33.5197 14.4238C33.5194 14.1118 33.3953 13.8126 33.1747 13.592C32.9541 13.3714 32.6549 13.2473 32.3429 13.247C32.0309 13.2467 31.7315 13.3702 31.5105 13.5904L22.9652 22.1359L19.8592 18.9693Z" fill="#375232"/>
<path d="M23.168 29.5313C25.3904 29.5288 27.5211 28.6449 29.0926 27.0735C30.6641 25.502 31.5481 23.3714 31.5507 21.149C31.5507 20.8366 31.4266 20.5369 31.2057 20.316C30.9848 20.0951 30.6851 19.971 30.3727 19.971C30.0603 19.971 29.7607 20.0951 29.5398 20.316C29.3189 20.5369 29.1948 20.8366 29.1948 21.149C29.1937 22.4492 28.7718 23.7142 27.9921 24.7548C27.2124 25.7954 26.1168 26.5556 24.8692 26.9218C23.6215 27.2881 22.2888 27.2406 21.0704 26.7866C19.852 26.3325 18.8132 25.4963 18.1095 24.4029C17.4058 23.3095 17.0749 22.0177 17.1663 20.7206C17.2577 19.4236 17.7665 18.191 18.6167 17.2071C19.4668 16.2232 20.6125 15.5409 21.8826 15.2622C23.1527 14.9836 24.4788 15.1235 25.6628 15.6611C25.9468 15.7888 26.2699 15.7988 26.5613 15.6889C26.8528 15.5791 27.0888 15.3582 27.2179 15.0748C27.3469 14.7913 27.3585 14.4683 27.25 14.1763C27.1415 13.8844 26.9218 13.6473 26.6389 13.5169C25.4996 12.9988 24.2587 12.7423 23.0073 12.7664C21.7559 12.7904 20.5258 13.0944 19.4072 13.6559C18.2886 14.2175 17.31 15.0224 16.5431 16.0116C15.7762 17.0007 15.2405 18.149 14.9754 19.3723C14.7103 20.5955 14.7224 21.8625 15.0109 23.0804C15.2994 24.2984 15.857 25.4362 16.6427 26.4105C17.4283 27.3848 18.4222 28.1708 19.5513 28.7108C20.6805 29.2509 21.9162 29.5312 23.1678 29.5313L23.168 29.5313Z" fill="#375232"/>
<path d="M31.5135 33.6424L22.9679 42.1875L19.8622 39.0214C19.6431 38.7998 19.3452 38.6741 19.0336 38.6718C18.722 38.6694 18.4222 38.7906 18.1997 39.0088C17.9773 39.227 17.8504 39.5244 17.8468 39.836C17.8431 40.1475 17.9631 40.4479 18.1804 40.6712L22.119 44.6862C22.228 44.7973 22.3579 44.8857 22.5013 44.9463C22.6446 45.0069 22.7986 45.0385 22.9542 45.0392H22.9599C23.2723 45.0392 23.5719 44.9151 23.7928 44.6943L33.1793 35.3082C33.289 35.1989 33.3761 35.0691 33.4356 34.9261C33.4951 34.7831 33.5258 34.6297 33.5259 34.4749C33.5261 34.32 33.4957 34.1666 33.4365 34.0235C33.3773 33.8804 33.2904 33.7504 33.1809 33.6408C33.0714 33.5313 32.9414 33.4445 32.7982 33.3853C32.6551 33.3261 32.5017 33.2957 32.3469 33.2958C32.192 33.296 32.0387 33.3267 31.8957 33.3861C31.7527 33.4456 31.6228 33.5327 31.5135 33.6424Z" fill="#375232"/>
<path d="M30.3693 40.0229C30.0569 40.0229 29.7573 40.147 29.5364 40.3679C29.3155 40.5888 29.1914 40.8884 29.1914 41.2008C29.1903 42.5011 28.7684 43.7662 27.9886 44.8068C27.2089 45.8474 26.1133 46.6077 24.8656 46.974C23.6179 47.3402 22.2851 47.2928 21.0666 46.8387C19.8481 46.3847 18.8094 45.5484 18.1056 44.4549C17.4018 43.3615 17.0709 42.0696 17.1623 40.7725C17.2538 39.4753 17.7626 38.2426 18.6127 37.2587C19.4629 36.2748 20.6087 35.5924 21.8788 35.3137C23.1489 35.0351 24.4751 35.175 25.6591 35.7126C25.9433 35.8415 26.2671 35.8524 26.5593 35.7429C26.8515 35.6333 27.0883 35.4123 27.2176 35.1283C27.347 34.8443 27.3584 34.5206 27.2493 34.2282C27.1402 33.9358 26.9196 33.6987 26.6358 33.5689C24.9876 32.8189 23.1409 32.6228 21.3719 33.0098C19.603 33.3969 18.0069 34.3463 16.8224 35.716C15.638 37.0857 14.9289 38.8021 14.8012 40.6084C14.6734 42.4147 15.134 44.2138 16.114 45.7365C17.0939 47.2592 18.5406 48.4238 20.2375 49.0558C21.9344 49.6879 23.7903 49.7536 25.5276 49.243C27.265 48.7324 28.7903 47.673 29.8754 46.2233C30.9604 44.7736 31.547 43.0116 31.5472 41.2008C31.5472 40.8884 31.4231 40.5888 31.2022 40.3679C30.9813 40.147 30.6817 40.0229 30.3693 40.0229Z" fill="#375232"/>
<path d="M57.7125 48.6514C57.7095 46.5016 56.9561 44.4203 55.5822 42.7667C54.2084 41.1132 52.3004 39.9911 50.1875 39.5943C51.1911 38.6054 51.9003 37.3571 52.2361 35.9887C52.5718 34.6204 52.5208 33.1856 52.0889 31.8445C51.6569 30.5034 50.8609 29.3086 49.7897 28.3934C48.7184 27.4782 47.4141 26.8785 46.0219 26.6612V8.01111C46.0209 7.05457 45.6404 6.13752 44.964 5.46115C44.2877 4.78477 43.3706 4.40431 42.4141 4.40323H35.3159V2.75736C35.3159 2.44496 35.1917 2.14537 34.9708 1.92449C34.7499 1.70361 34.4503 1.57952 34.1379 1.57953H14.1692C13.8568 1.57953 13.5572 1.70362 13.3363 1.9245C13.1154 2.14538 12.9913 2.44497 12.9912 2.75736V4.40326H5.89301C4.93648 4.40434 4.01943 4.78479 3.34306 5.46116C2.66669 6.13753 2.28624 7.05458 2.28516 8.01111V54.8138C2.28628 55.7703 2.66676 56.6873 3.34312 57.3636C4.01949 58.0399 4.93651 58.4203 5.89301 58.4214H33.1533C33.4657 58.4214 33.7653 58.2973 33.9862 58.0764C34.2071 57.8555 34.3312 57.556 34.3312 57.2436C34.3312 57.2223 34.3261 57.2026 34.325 57.1816C34.3261 57.1607 34.3312 57.141 34.3312 57.1197V48.6514C34.3333 46.8328 35.0567 45.0892 36.3426 43.8033C37.6286 42.5173 39.3721 41.794 41.1907 41.7919H48.497C50.3156 41.7939 52.0592 42.5173 53.3452 43.8033C54.6312 45.0892 55.3546 46.8328 55.3567 48.6515V57.1198C55.3567 57.4322 55.4808 57.7318 55.7017 57.9527C55.9226 58.1736 56.2222 58.2977 56.5346 58.2977C56.847 58.2977 57.1467 58.1736 57.3676 57.9527C57.5885 57.7318 57.7126 57.4322 57.7126 57.1198L57.7125 48.6514ZM50.0992 34.1808C50.0992 35.2202 49.791 36.2362 49.2135 37.1005C48.636 37.9647 47.8153 38.6383 46.855 39.0361C45.8947 39.4338 44.838 39.5379 43.8186 39.3351C42.7991 39.1323 41.8627 38.6318 41.1277 37.8968C40.3928 37.1618 39.8923 36.2254 39.6895 35.2059C39.4867 34.1865 39.5908 33.1298 39.9886 32.1695C40.3864 31.2092 41.06 30.3885 41.9243 29.811C42.7885 29.2336 43.8046 28.9254 44.844 28.9254C46.2373 28.927 47.5731 29.4812 48.5583 30.4664C49.5435 31.4516 50.0977 32.7875 50.0993 34.1808H50.0992ZM15.3471 3.93518H32.96V7.22719H15.3471V3.93518ZM31.9754 48.6514V56.0658H5.89301C5.56107 56.0654 5.24284 55.9334 5.00813 55.6987C4.77341 55.464 4.64139 55.1457 4.64102 54.8138V8.01111C4.64135 7.67914 4.77335 7.36085 5.00806 7.12609C5.24278 6.89133 5.56104 6.75927 5.89301 6.75889H12.9912V8.405C12.9912 8.71739 13.1154 9.01698 13.3363 9.23787C13.5572 9.45876 13.8568 9.58285 14.1692 9.58285H34.1379C34.4503 9.58284 34.7499 9.45875 34.9708 9.23787C35.1917 9.01699 35.3158 8.71741 35.3158 8.40502V6.75889H42.414C42.746 6.75927 43.0643 6.89133 43.299 7.12609C43.5337 7.36085 43.6657 7.67914 43.666 8.01111V26.6613C42.2739 26.8785 40.9695 27.4782 39.8982 28.3934C38.827 29.3086 38.031 30.5033 37.599 31.8445C37.167 33.1856 37.1161 34.6203 37.4518 35.9887C37.7876 37.3571 38.4968 38.6053 39.5004 39.5942C37.3876 39.9911 35.4795 41.1131 34.1057 42.7667C32.7318 44.4202 31.9784 46.5015 31.9754 48.6514V48.6514Z" fill="#375232"/>
</svg>
