<svg width="60" height="60" viewBox="0 0 60 60" fill="none" xmlns="http://www.w3.org/2000/svg">
<path d="M41.175 26.1007L45.075 21.0758C46.8 18.8257 46.35 15.5258 44.1 13.8008C41.85 12.0758 38.55 12.5258 36.825 14.7758L28.125 26.1007C28.125 26.1007 28.125 26.1757 28.05 26.1757H12L12.15 27.8257C12.75 33.6757 16.35 38.8507 21.525 41.6257V46.9507H37.425V41.8507C42.825 39.1507 46.5 33.9007 47.175 27.9007L47.325 26.2507H41.175V26.1007ZM39.15 16.5757C39.9 15.6007 41.25 15.4508 42.225 16.2007C43.2 16.9507 43.35 18.3008 42.6 19.2758L37.35 26.1757H31.8L39.15 16.5757ZM35.4 39.3757L34.5 39.7507V43.8007H24.525V39.6007L23.625 39.2257C19.425 37.3507 16.35 33.5257 15.375 29.1007H26.55H38.925H43.95C42.9 33.6757 39.75 37.5007 35.4 39.3757Z" fill="#375232"/>
<path d="M21.2248 24.0007C21.7498 22.1257 21.2248 20.0257 19.7248 18.5257C18.2248 17.0257 16.1248 16.5757 14.2498 17.0257C13.7248 18.9007 14.2498 21.0007 15.7498 22.5007C17.2498 24.0757 19.3498 24.5257 21.2248 24.0007Z" fill="#375232"/>
<path d="M26.1752 23.0258C27.2252 21.9758 27.5252 20.5508 27.1502 19.2758C25.8752 18.9008 24.4502 19.2758 23.4002 20.2508C22.3502 21.3008 22.0502 22.7257 22.4252 24.0007C23.7002 24.3757 25.1252 24.0757 26.1752 23.0258Z" fill="#375232"/>
</svg>
